<svg xmlns="http://www.w3.org/2000/svg" width="19.983" height="19.983" viewBox="0 0 19.983 19.983">
  <g id="Group_1" data-name="Group 1" transform="translate(-203.836 -191.067)">
    <path id="Path_1" data-name="Path 1" d="M204.436,482.87h0a4.435,4.435,0,0,0,4.435,4.435h1.044v1.044a4.435,4.435,0,0,0,4.435,4.435h0V482.87Z" transform="translate(0 -282.333)" fill="none" stroke="#fff" stroke-linecap="round" stroke-linejoin="round" stroke-width="1.2"/>
    <path id="Path_2" data-name="Path 2" d="M350.038,337.268h0a4.435,4.435,0,0,0,4.435,4.435h1.044v1.043a4.435,4.435,0,0,0,4.435,4.435h0v-9.913Z" transform="translate(-141.167 -141.166)" fill="none" stroke="#fff" stroke-linecap="round" stroke-linejoin="round" stroke-width="1.2"/>
    <path id="Path_3" data-name="Path 3" d="M495.64,191.667h0a4.435,4.435,0,0,0,4.435,4.435h1.044v1.044a4.435,4.435,0,0,0,4.435,4.435h0v-9.913Z" transform="translate(-282.334 0)" fill="none" stroke="#fff" stroke-linecap="round" stroke-linejoin="round" stroke-width="1.2"/>
  </g>
</svg>
