<svg xmlns="http://www.w3.org/2000/svg" width="23.197" height="22.368" viewBox="0 0 23.197 22.368">
  <g id="cloud-monitoring" transform="translate(-12 -17.999)">
    <path id="Path_68" data-name="Path 68" d="M33.54,33.942v4.971H13.657V25.657h5.8V24h-5.8A1.657,1.657,0,0,0,12,25.657V38.912a1.657,1.657,0,0,0,1.657,1.657h6.628v3.314H16.971V45.54H30.226V43.883H26.912V40.569H33.54A1.657,1.657,0,0,0,35.2,38.912V33.942Zm-8.285,9.942H21.942V40.569h3.314Z" transform="translate(0 -5.172)" fill="#fff"/>
    <path id="Path_69" data-name="Path 69" d="M71.8,30.426h-.008a.828.828,0,0,1-.788-.6l-1.485-5.2H66V22.97h4.142a.828.828,0,0,1,.8.6l.89,3.115,2.493-8.1A.84.84,0,0,1,75.113,18a.812.812,0,0,1,.786.567l1.467,4.4h4.374v1.657H76.77a.829.829,0,0,1-.786-.567l-.839-2.518-2.553,8.3A.828.828,0,0,1,71.8,30.426Z" transform="translate(-46.544 0)" fill="#fff"/>
  </g>
</svg>
